<svg id="Layer_1" data-name="Layer 1" xmlns="http://www.w3.org/2000/svg" viewBox="0 0 310.73 310.75"><defs><style>.cls-1{fill:#fff;}.cls-2{fill:#009de0;}.cls-3{fill:#84d0f0;}.cls-4{fill:#feed00;}</style></defs><title>logga_vallokal_vertikal1 [Converted]</title><path class="cls-1" d="M459.84,309A155.37,155.37,0,1,1,304.48,153.59,155.37,155.37,0,0,1,459.84,309Z" transform="translate(-149.11 -153.59)"/><path class="cls-2" d="M265.43,199.41C233.81,217.66,202.49,235.59,171,254c14.51,25.45,29.24,50.78,43.81,76.2a95.06,95.06,0,0,1,5.06,9.24c-22.61.1-45.21.06-67.82,0a155.59,155.59,0,0,1,75.73-165.68,155.38,155.38,0,0,1,229,165.93l-.77-.07c-19.88-.35-39.79-.26-59.67,0q-23.85-41.26-47.65-82.56c-6.3,3.64-12.62,7.25-18.91,10.91-7.66-13.13-15.17-26.34-22.83-39.46-5.75,3.42-12.49,7.11-18.17,10.63Z" transform="translate(-149.11 -153.59)"/><path class="cls-2" d="M154,348.11c31.74-.08,63.48.25,95.22-.16,4,6.58,7.69,13.37,11.69,20-33.4.19-66.79,0-100.19.1A151.93,151.93,0,0,1,154,348.11Z" transform="translate(-149.11 -153.59)"/><path class="cls-2" d="M401.21,348.1c17.74.06,35.47,0,53.21,0,0,.47,0,1.43,0,1.9a139.2,139.2,0,0,1-6.25,18c-11.81-.13-23.63,0-35.44-.06Q406.94,358,401.21,348.1Z" transform="translate(-149.11 -153.59)"/><path class="cls-2" d="M164.65,376.77q63.27-.09,126.54,0c4.26,7.66,8.91,15.11,13,22.85q-63,.06-126,0A157.5,157.5,0,0,1,164.65,376.77Z" transform="translate(-149.11 -153.59)"/><path class="cls-2" d="M417.76,376.76c8.84,0,17.67,0,26.5,0a153.17,153.17,0,0,1-13.5,22.86h-.12c-7,0-14,.05-21,0,5.18-3.3,10.58-6.26,15.92-9.3C422.94,385.79,420.37,381.26,417.76,376.76Z" transform="translate(-149.11 -153.59)"/><path class="cls-2" d="M184.86,408.32q119.58-.21,239.17,0a155.56,155.56,0,0,1-162,50.2C232,450.1,204.9,432.14,184.86,408.32Z" transform="translate(-149.11 -153.59)"/><path class="cls-3" d="M289.28,238.88s-51.62,29.82-77.5,44.6c12.09,21.71,25,43,37.11,64.69-31.74.41-63.48.08-95.22.16-.71-2.87-1.4-5.74-2-8.62,22.61,0,45.21.07,67.82,0a95.06,95.06,0,0,0-5.06-9.24c-14.57-25.42-29.3-50.75-43.81-76.2,31.52-18.43,63.2-36.58,94.82-54.83Z" transform="translate(-149.11 -153.59)"/><path class="cls-3" d="M396.34,339.64c19.88-.23,39.79-.32,59.67,0l.88.89c-1,3.11-1.33,6.4-2.5,9.46,0-.47,0-1.43,0-1.9-17.74,0-35.47,0-53.21,0C399.58,345.28,397.93,342.47,396.34,339.64Z" transform="translate(-149.11 -153.59)"/><path class="cls-4" d="M329.78,268c6.29-3.66,12.61-7.27,18.91-10.91q23.78,41.31,47.65,82.56c1.59,2.83,3.24,5.64,4.87,8.46Q407,358,412.7,368l5.06,8.77c2.61,4.5,5.18,9,7.81,13.53-5.34,3-10.74,6-15.92,9.3,7,.07,14,0,21,0a94,94,0,0,1-6.61,8.67q-119.59,0-239.17,0c-2.32-2.82-4.57-5.7-6.66-8.69q63-.06,126,0c-4.11-7.74-8.76-15.19-13-22.85-12.24-21.08-37.85-64.58-37.85-64.58l3.68-2.23S305.52,282,329.78,268Z" transform="translate(-149.11 -153.59)"/></svg>