<svg id="Layer_1" data-name="Layer 1" xmlns="http://www.w3.org/2000/svg" viewBox="0 0 52.83 63.07"><defs><style>.cls-1{fill:#1d1d1b;}.cls-2{fill:#fff;}</style></defs><title>logo_no-title_print</title><path class="cls-1" d="M52.79,0H0C0,.56-.32,14.72,1.49,23.64c3,14.6,11.11,27.73,24.92,39.42,13.81-11.69,22-24.82,24.93-39.42C53.15,14.72,52.8.56,52.79,0" transform="translate(0)"/><path class="cls-2" d="M33.18,9.16A1.15,1.15,0,1,1,32,10.31a1.15,1.15,0,0,1,1.14-1.14" transform="translate(0)"/><path class="cls-2" d="M19.65,9.16a1.15,1.15,0,1,1-1.15,1.14,1.14,1.14,0,0,1,1.15-1.14" transform="translate(0)"/><path class="cls-2" d="M16.5,39.62c1,0,1-.51,1.07-.67a1.65,1.65,0,0,1-1.15.32,1.46,1.46,0,0,1-1.47-1.2,2.4,2.4,0,0,1,0-1.06,2.22,2.22,0,0,0,1.15.49,1.54,1.54,0,0,0,1.56-1.63c0-1.2-.86-2.5-2.54-4.49a8.64,8.64,0,0,1-2.24-5.57c0-4.43,4.41-7.22,4.41-7.22s.46,11.07.55,12.27a15.8,15.8,0,0,0,1.09,4.82v3.86a1.56,1.56,0,0,1-1.5.86c-.42,0-.94-.4-.89-.76" transform="translate(0)"/><path class="cls-2" d="M26.41,17.06a48.64,48.64,0,0,0-9.88.77l-.86-1.72a63,63,0,0,1,10.73-.87,63.09,63.09,0,0,1,10.74.87l-.86,1.72a48.69,48.69,0,0,0-9.88-.77" transform="translate(0)"/><path class="cls-2" d="M32.28,48.64H20.56l-1.93-2.17a4.45,4.45,0,0,0,1.22-3.15V37.25a8.32,8.32,0,0,0,6.57,3.29c3.79,0,6.61-3.22,6.57-3.21v6a4.45,4.45,0,0,0,1.22,3.15Z" transform="translate(0)"/><path class="cls-2" d="M36.78,37.49A2.23,2.23,0,0,0,37.92,37a2.39,2.39,0,0,1,0,1.06,1.45,1.45,0,0,1-1.47,1.2A1.65,1.65,0,0,1,35.26,39c0,.16.09.67,1.07.67.05.37-.47.76-.89.76a1.55,1.55,0,0,1-1.5-.86V35.67A15.84,15.84,0,0,0,35,30.84c.09-1.19.56-12.27.56-12.27S40,21.37,40,25.8a8.63,8.63,0,0,1-2.24,5.57c-1.69,2-2.54,3.29-2.54,4.49a1.54,1.54,0,0,0,1.56,1.63" transform="translate(0)"/><path class="cls-2" d="M37.54,15.34a62.36,62.36,0,0,0-11.13-.95,62.29,62.29,0,0,0-11.12.95L12.18,9.11a3.68,3.68,0,0,1,1.58-.64,1.4,1.4,0,0,1,1.42,1.4,1,1,0,0,1-.21.7l0,.05c-.26.3-.32.37-.32.57a.45.45,0,0,0,.46.46c.3,0,.37-.1.51-.47a1.1,1.1,0,0,1,2.15.34,1.1,1.1,0,0,1-1.1,1.11.93.93,0,0,1-.56-.15.3.3,0,0,0-.16-.06.2.2,0,0,0-.15.08.53.53,0,0,0-.09.44,2.17,2.17,0,0,0,2,1.21,2.47,2.47,0,0,0,2.42-2.33,2.8,2.8,0,0,0,2.74,1.67,2.79,2.79,0,0,0,2.88-2.68,1,1,0,0,0-.23-.75s-.06,0-.13,0l-.1.08a2.38,2.38,0,0,1-1.59.75A1.71,1.71,0,0,1,21.9,9.23,1.67,1.67,0,0,1,23.63,7.5,1.91,1.91,0,0,1,25,8.15c.1.1.21.21.27.21a.41.41,0,0,0,.31-.13A.37.37,0,0,0,25.69,8a.24.24,0,0,0,0-.05c0-.08-.1-.17-.21-.28a1.63,1.63,0,0,1-.56-1.23,1.5,1.5,0,1,1,3,0,1.62,1.62,0,0,1-.56,1.23.69.69,0,0,0-.21.28s0,0,0,.05a.36.36,0,0,0,.09.24.4.4,0,0,0,.31.13c.06,0,.17-.11.27-.21A1.89,1.89,0,0,1,29.2,7.5a1.67,1.67,0,0,1,1.73,1.73,1.71,1.71,0,0,1-1.74,1.71,2.39,2.39,0,0,1-1.59-.75l-.09-.08c-.08-.07-.12-.05-.14,0a1,1,0,0,0-.23.75,3,3,0,0,0,5.61,1,2.47,2.47,0,0,0,2.42,2.33,2.16,2.16,0,0,0,2-1.21.52.52,0,0,0-.08-.44.2.2,0,0,0-.15-.08.28.28,0,0,0-.16.06.93.93,0,0,1-.56.15,1.1,1.1,0,0,1-1.1-1.11,1.1,1.1,0,0,1,2.15-.34c.14.38.21.47.51.47a.45.45,0,0,0,.46-.46c0-.2-.06-.27-.33-.57l0-.05a1,1,0,0,1-.21-.7,1.4,1.4,0,0,1,1.42-1.4,3.66,3.66,0,0,1,1.57.64Z" transform="translate(0)"/><path class="cls-2" d="M34.52,18.49c0,.87-.33,8-.37,10a41.23,41.23,0,0,1-.44,4.67,7.5,7.5,0,0,1-7.3,6.24c-4.77,0-6.83-3.92-7.3-6.24a41,41,0,0,1-.45-4.67c0-2-.32-9.16-.36-10a57.39,57.39,0,0,1,8.1-.49,57.46,57.46,0,0,1,8.11.49" transform="translate(0)"/><path class="cls-1" d="M31.36,21.95a1.94,1.94,0,0,0-1.22.34c-.19.15-.25.35,0,.35a.83.83,0,0,1,.81.79.46.46,0,0,1-.47.51c-.25,0-.39.23-.13.28a4.8,4.8,0,0,0,1,.08c1.43,0,2.2-.47,2.2-.86a2.18,2.18,0,0,0-2.19-1.5" transform="translate(0)"/><path class="cls-1" d="M22,20.42a5.2,5.2,0,0,1,2.35,1.25,3.93,3.93,0,0,1,1.13,2c.09.43.24.45.37,0a2.5,2.5,0,0,0-.62-2.51,3.71,3.71,0,0,0-2.73-1.09,3.58,3.58,0,0,0-.5,0c-.41.05-.43.18,0,.29" transform="translate(0)"/><path class="cls-1" d="M29.33,33.82l-1.84-.88a.69.69,0,0,0-.37-.08H25.7a.68.68,0,0,0-.37.08l-1.84.88c-.23.11-.2.33,0,.33h5.8c.22,0,.25-.22,0-.33" transform="translate(0)"/><path class="cls-1" d="M24.17,23.45A2.18,2.18,0,0,0,22,21.95a1.93,1.93,0,0,0-1.22.35c-.19.15-.25.35,0,.35a.84.84,0,0,1,.81.79.46.46,0,0,1-.47.51c-.25,0-.39.23-.13.28a4.82,4.82,0,0,0,1,.08c1.43,0,2.19-.47,2.19-.86" transform="translate(0)"/><path class="cls-1" d="M28.28,35H24.55a.15.15,0,0,0-.09.28l1.06.7a.56.56,0,0,0,.36.1h1.07a.57.57,0,0,0,.37-.1l1.06-.7a.15.15,0,0,0-.09-.28" transform="translate(0)"/><path class="cls-1" d="M32.22,20.1H30.4a3.27,3.27,0,0,0-3.19,3.46v5.55c0,.32-.12.51-.45.51h-.34a.81.81,0,0,0-.55.19c-.28.24-1,.83-1.07,1s-.07.25.22.25h3.73c.21,0,.3-.09.13-.25l-1-.94v-5.6c0-1.46.28-3.26,3-3.26h1.5A1.93,1.93,0,0,0,34,20.09H32.22" transform="translate(0)"/></svg>